<?xml version="1.0" encoding="UTF-8"?>
<svg height="126px" version="1.1" viewBox="0 0 150 126" width="150px"
    xmlns="http://www.w3.org/2000/svg">
    <title>under-construction</title>
    <g fill="none" fill-rule="evenodd" id="Page-1" stroke="none" stroke-width="1">
        <g fill-rule="nonzero" id="Hủ-đậu-3-Copy" transform="translate(-105.000000, -228.000000)">
            <g id="under-construction" transform="translate(105.000000, 228.000000)">
                <g fill="#D4D2D3" id="Group" transform="translate(7.000000, 0.000000)">
                    <path
                        d="M12.7895451,0.236469767 L4.5624206,0.236469767 C2.1888412,0.236469767 0.264995708,2.16837209 0.264995708,4.55123721 L0.264995708,122.261902 C0.264995708,124.195856 1.82666094,125.76353 3.75254936,125.76353 L13.5994163,125.76353 C15.5255966,125.76353 17.08697,124.195563 17.08697,122.261902 L17.08697,4.55123721 C17.08697,2.16807907 15.1628326,0.236469767 12.7895451,0.236469767 Z"
                        id="Path"></path>
                    <path
                        d="M123.210455,0.236469767 L131.437579,0.236469767 C133.811159,0.236469767 135.735004,2.16837209 135.735004,4.55123721 L135.735004,122.261902 C135.735004,124.195856 134.173339,125.76353 132.247451,125.76353 L122.400584,125.76353 C120.474403,125.76353 118.91303,124.195563 118.91303,122.261902 L118.91303,4.55123721 C118.91303,2.16807907 120.837167,0.236469767 123.210455,0.236469767 Z"
                        id="Path"></path>
                </g>
                <g fill="#465059" id="Group" transform="translate(0.000000, 11.000000)">
                    <polygon id="Path"
                        points="21.8041992 0.280741935 7.56035156 6.7743871 0 21.8885806 0 45.2040968 29.7380859 27.1030645 45.3325195 0.280741935"></polygon>
                    <polygon id="Path"
                        points="67.0163086 0.280741935 29.7380859 27.1030645 12.8830078 53.9250968 36.4113281 53.9250968 70.4636719 32.1477097 90.5443359 0.280741935"></polygon>
                    <polygon id="Path"
                        points="112.227832 0.280741935 70.4636719 32.1477097 58.0945313 53.9250968 81.6228516 53.9250968 115.811426 30.969 135.756152 0.280741935"></polygon>
                    <polygon id="Path"
                        points="112.227832 35.7439355 103.306641 53.9250968 126.834668 53.9250968 143.649316 45.2040968 150 30.969 150 7.65319355"></polygon>
                </g>
                <g fill="#FFCD38" id="Group" transform="translate(0.000000, 11.000000)">
                    <path
                        d="M150,30.969 L150,46.9843548 C150,50.8174839 146.86377,53.9250968 142.995996,53.9250968 L126.834668,53.9250968 L150,30.969 Z"
                        id="Path"></path>
                    <path
                        d="M150,7.22177419 L150,7.65348387 L103.306641,53.9250968 L81.6231445,53.9250968 L135.756152,0.280741935 L142.995996,0.280741935 C146.86377,0.280741935 150,3.38864516 150,7.22177419 Z"
                        id="Path"></path>
                    <polygon id="Path"
                        points="112.227832 0.280741935 58.0945312 53.9250968 36.4113281 53.9250968 90.5443359 0.280741935"></polygon>
                    <path
                        d="M67.0163086,0.280741935 L12.8830078,53.9250968 L7.00400391,53.9250968 C3.13623047,53.9250968 0,50.8171935 0,46.9840645 L0,45.2038065 L45.3325195,0.280741935 L67.0163086,0.280741935 Z"
                        id="Path"></path>
                    <path
                        d="M21.8041992,0.280741935 L0,21.8885806 L0,7.22177419 C0,3.38864516 3.13623047,0.281032258 7.00400391,0.281032258 L21.8041992,0.281032258 L21.8041992,0.280741935 Z"
                        id="Path"></path>
                </g>
                <g fill="#BAB8B9" id="Group" transform="translate(7.000000, 65.000000)">
                    <rect height="8.74715625" id="Rectangle" width="16.8225579" x="0.265871245"
                        y="0.20728125"></rect>
                    <rect height="8.74715625" id="Rectangle" width="16.8225579" x="118.912738"
                        y="0.20728125"></rect>
                </g>
            </g>
        </g>
    </g>
</svg>